<svg width="512" height="512" viewBox="0 0 512 512" fill="none" xmlns="http://www.w3.org/2000/svg">
<path d="M256.957 170.599C266.507 170.791 272.665 176.977 276.464 181.936C280.313 186.959 284.256 194.102 288.568 201.833L288.579 201.854L288.59 201.874L290.881 206.016L291.775 207.608C292.043 208.084 292.285 208.509 292.513 208.902C292.822 209.435 293.066 209.835 293.26 210.145C293.56 210.227 293.939 210.327 294.424 210.445C294.843 210.547 295.297 210.654 295.806 210.771L297.517 211.157L297.558 211.167L302.098 212.203C310.432 214.083 318.236 215.81 324.08 218.114C330.085 220.482 337.319 224.719 340.253 233.557L340.39 233.981L340.519 234.411C343.073 243.214 339.698 250.812 336.272 256.257C332.886 261.636 327.593 267.77 321.883 274.441L321.876 274.449L318.767 278.078C317.909 279.085 317.246 279.862 316.681 280.546C316.206 281.12 315.883 281.535 315.651 281.845C315.672 282.572 315.744 283.523 315.887 285.05L316.068 286.927L316.07 286.944L316.534 291.771C317.404 300.698 318.226 308.848 317.941 315.225C317.654 321.629 316.141 330.176 308.558 335.95C300.727 341.913 291.967 340.741 285.779 338.967C279.756 337.241 272.465 333.844 264.668 330.263L264.659 330.259L260.391 328.294C259.19 327.742 258.275 327.32 257.474 326.967C257.077 326.792 256.752 326.653 256.484 326.542C256.218 326.651 255.899 326.788 255.508 326.96C254.716 327.308 253.803 327.726 252.613 328.273L252.614 328.274L248.341 330.241L248.34 330.24C240.544 333.842 233.261 337.243 227.227 338.972C221.025 340.749 212.266 341.908 204.442 335.95C196.859 330.177 195.345 321.63 195.059 315.228C194.774 308.849 195.597 300.697 196.467 291.772L196.93 286.949L196.931 286.938L196.932 286.927C197.196 284.226 197.321 282.825 197.349 281.837C197.119 281.529 196.797 281.116 196.324 280.544C195.759 279.862 195.091 279.08 194.227 278.07L191.123 274.449L191.117 274.441L191.111 274.435C185.414 267.768 180.122 261.634 176.738 256.261C173.26 250.74 169.817 242.982 172.608 233.991L172.611 233.981C175.451 224.854 182.82 220.519 188.92 218.114C194.765 215.81 202.569 214.083 210.902 212.203L215.442 211.167L215.462 211.162L215.484 211.157C216.76 210.87 217.738 210.649 218.576 210.445C219.058 210.328 219.435 210.228 219.734 210.146C219.924 209.841 220.164 209.448 220.465 208.927C220.916 208.145 221.425 207.231 222.081 206.05L222.085 206.043L222.089 206.037L224.431 201.836L224.432 201.833C228.744 194.102 232.688 186.959 236.536 181.936C240.396 176.898 246.689 170.594 256.5 170.594L256.957 170.599ZM256.499 200.09C254.373 203.243 251.753 207.894 247.849 214.894L245.515 219.078C243.518 222.671 240.813 228.076 236.04 231.698C231.205 235.368 225.291 236.434 221.41 237.306L221.41 237.307L216.87 238.343L216.854 238.347L216.836 238.351C208.527 240.225 203.344 241.432 199.865 242.648C202.018 245.883 205.627 250.15 211.481 257L214.591 260.629L214.598 260.636C217.222 263.702 221.052 267.84 222.902 273.272L223.075 273.802L223.232 274.332C224.786 279.818 224.019 285.433 223.618 289.532L223.156 294.354L223.155 294.364L223.154 294.374C222.311 303.014 221.796 308.605 221.812 312.557C225.244 311.339 229.949 309.202 237.114 305.893L237.122 305.888L237.131 305.884L241.404 303.918L241.409 303.916C244.973 302.277 250.399 299.473 256.5 299.473L257.072 299.48C262.201 299.628 266.843 301.717 270.192 303.281L271.592 303.934L271.597 303.936L275.858 305.897C283.04 309.196 287.748 311.331 291.188 312.55C291.203 308.595 290.688 303.001 289.846 294.355V294.348L289.845 294.341L289.38 289.515C288.967 285.285 288.166 279.446 289.925 273.802C291.699 268.108 295.717 263.787 298.383 260.658L298.409 260.629L301.519 257C307.381 250.151 310.992 245.882 313.141 242.651C309.661 241.434 304.478 240.226 296.163 238.351L296.147 238.347L296.129 238.343L291.589 237.307C287.708 236.435 281.794 235.367 276.959 231.698C272.2 228.086 269.485 222.684 267.486 219.113L267.469 219.083L267.452 219.054L265.128 214.854C261.236 207.876 258.622 203.237 256.499 200.09Z" fill="black"/>
<path d="M64.3438 255.5C64.3438 220.532 73.7011 187.674 90.0645 159.408C93.7741 153 101.976 150.813 108.384 154.522C114.791 158.232 116.979 166.434 113.27 172.842C99.2097 197.128 91.1563 225.367 91.1562 255.5C91.1562 346.819 165.18 420.844 256.5 420.844C347.82 420.844 421.844 346.819 421.844 255.5C421.844 164.18 347.819 90.156 256.5 90.156H256.478C227.463 90.1082 198.953 97.738 173.84 112.27C167.431 115.979 159.23 113.79 155.521 107.382C151.813 100.973 154.002 92.7717 160.41 89.0632C189.611 72.1652 222.762 63.2927 256.5 63.3445C256.503 63.3445 256.507 63.3445 256.51 63.3445C256.514 63.3445 256.518 63.3435 256.522 63.3435L256.521 63.3445C362.639 63.3561 448.656 149.379 448.656 255.5C448.656 361.627 362.628 447.656 256.5 447.656C150.372 447.656 64.3438 361.627 64.3438 255.5Z" fill="black"/>
<path d="M89.9215 133.639C97.3005 120.894 113.615 116.543 126.361 123.922C139.107 131.301 143.457 147.616 136.078 160.361C129.009 172.571 113.741 177.075 101.265 170.945C100.659 170.855 100.058 170.653 99.4948 170.327C98.9317 170.001 98.4577 169.581 98.0775 169.099C86.5496 161.332 82.8529 145.849 89.9215 133.639Z" fill="black"/>
</svg>
